<svg width="388" height="95" viewBox="0 0 388 95" fill="none" xmlns="http://www.w3.org/2000/svg">
<path d="M0.0917537 72V4.8H46.9398V18.72H15.9318V58.08H47.8998V72H0.0917537ZM7.77175 44.448V31.2H42.6198V44.448H7.77175ZM69.562 73.056C65.146 73.056 61.21 71.936 57.754 69.696C54.362 67.392 51.674 64.256 49.69 60.288C47.706 56.256 46.714 51.68 46.714 46.56C46.714 41.44 47.706 36.896 49.69 32.928C51.674 28.896 54.394 25.728 57.85 23.424C61.306 21.12 65.274 19.968 69.754 19.968C72.058 19.968 74.266 20.32 76.378 21.024C78.49 21.728 80.41 22.688 82.138 23.904C83.866 25.12 85.274 26.528 86.362 28.128C87.45 29.664 88.09 31.264 88.282 32.928L84.634 33.792V0.959999H100.09V72H85.786L84.922 60.384L87.994 60.864C87.802 62.464 87.162 64 86.074 65.472C85.05 66.944 83.706 68.256 82.042 69.408C80.378 70.496 78.458 71.36 76.282 72C74.17 72.704 71.93 73.056 69.562 73.056ZM73.498 60.288C75.866 60.288 77.914 59.712 79.642 58.56C81.37 57.408 82.682 55.808 83.578 53.76C84.538 51.712 85.018 49.312 85.018 46.56C85.018 43.744 84.538 41.312 83.578 39.264C82.682 37.216 81.37 35.616 79.642 34.464C77.914 33.312 75.866 32.736 73.498 32.736C71.13 32.736 69.082 33.312 67.354 34.464C65.69 35.616 64.378 37.216 63.418 39.264C62.458 41.312 61.978 43.744 61.978 46.56C61.978 49.312 62.458 51.712 63.418 53.76C64.378 55.808 65.69 57.408 67.354 58.56C69.082 59.712 71.13 60.288 73.498 60.288ZM122.355 73.056C118.579 73.056 115.347 72.256 112.659 70.656C110.035 68.992 107.987 66.624 106.515 63.552C105.107 60.48 104.403 56.8 104.403 52.512V21.024H119.859V50.4C119.859 52.448 120.179 54.208 120.819 55.68C121.459 57.152 122.419 58.304 123.699 59.136C124.979 59.904 126.515 60.288 128.307 60.288C129.651 60.288 130.867 60.064 131.955 59.616C133.107 59.168 134.067 58.56 134.835 57.792C135.667 56.96 136.307 56.032 136.755 55.008C137.203 53.92 137.427 52.736 137.427 51.456V21.024H152.883V72H138.387L137.715 61.536L140.595 60.384C139.827 62.816 138.547 64.992 136.755 66.912C134.963 68.768 132.819 70.272 130.323 71.424C127.827 72.512 125.171 73.056 122.355 73.056ZM179.34 72.96C174.412 72.96 169.996 71.808 166.092 69.504C162.188 67.2 159.084 64.064 156.78 60.096C154.54 56.064 153.42 51.52 153.42 46.464C153.42 41.408 154.54 36.896 156.78 32.928C159.084 28.896 162.188 25.728 166.092 23.424C169.996 21.12 174.412 19.968 179.34 19.968C183.884 19.968 188.044 20.768 191.82 22.368C195.66 23.968 198.7 26.208 200.94 29.088L192.588 39.072C191.692 38.048 190.636 37.088 189.42 36.192C188.204 35.296 186.86 34.592 185.388 34.08C183.916 33.568 182.38 33.312 180.78 33.312C178.348 33.312 176.204 33.888 174.348 35.04C172.492 36.128 171.052 37.664 170.028 39.648C169.004 41.632 168.492 43.904 168.492 46.464C168.492 48.896 169.004 51.104 170.028 53.088C171.116 55.072 172.588 56.64 174.444 57.792C176.3 58.944 178.412 59.52 180.78 59.52C182.444 59.52 183.98 59.328 185.388 58.944C186.796 58.496 188.076 57.856 189.228 57.024C190.444 56.192 191.564 55.168 192.588 53.952L200.844 64.032C198.668 66.784 195.628 68.96 191.724 70.56C187.884 72.16 183.756 72.96 179.34 72.96ZM218.501 72.864C214.213 72.864 210.373 71.744 206.981 69.504C203.653 67.2 200.997 64.064 199.013 60.096C197.029 56.064 196.037 51.52 196.037 46.464C196.037 41.28 197.029 36.704 199.013 32.736C200.997 28.768 203.717 25.664 207.173 23.424C210.629 21.12 214.565 19.968 218.981 19.968C221.413 19.968 223.621 20.32 225.605 21.024C227.653 21.728 229.445 22.72 230.981 24C232.517 25.216 233.829 26.656 234.917 28.32C236.005 29.92 236.805 31.648 237.317 33.504L234.149 33.12V21.024H249.413V72H233.861V59.712L237.317 59.616C236.805 61.408 235.973 63.104 234.821 64.704C233.669 66.304 232.261 67.712 230.597 68.928C228.933 70.144 227.077 71.104 225.029 71.808C222.981 72.512 220.805 72.864 218.501 72.864ZM222.725 59.904C225.093 59.904 227.141 59.36 228.869 58.272C230.597 57.184 231.941 55.648 232.901 53.664C233.861 51.616 234.341 49.216 234.341 46.464C234.341 43.712 233.861 41.344 232.901 39.36C231.941 37.312 230.597 35.744 228.869 34.656C227.141 33.504 225.093 32.928 222.725 32.928C220.421 32.928 218.405 33.504 216.677 34.656C215.013 35.744 213.701 37.312 212.741 39.36C211.781 41.344 211.301 43.712 211.301 46.464C211.301 49.216 211.781 51.616 212.741 53.664C213.701 55.648 215.013 57.184 216.677 58.272C218.405 59.36 220.421 59.904 222.725 59.904Z" fill="#5B29A1"/>
<path d="M253.27 72V21.024H267.862L268.342 30.24L266.326 30.336C267.094 28.672 268.054 27.2 269.206 25.92C270.422 24.64 271.766 23.584 273.238 22.752C274.774 21.856 276.342 21.184 277.942 20.736C279.606 20.288 281.27 20.064 282.934 20.064C285.43 20.064 287.702 20.448 289.75 21.216C291.798 21.984 293.59 23.232 295.126 24.96C296.662 26.624 297.878 28.896 298.774 31.776L296.374 31.584L297.142 30.048C297.974 28.512 299.03 27.136 300.31 25.92C301.654 24.64 303.126 23.584 304.726 22.752C306.326 21.856 307.99 21.184 309.718 20.736C311.446 20.288 313.11 20.064 314.71 20.064C318.742 20.064 322.102 20.864 324.79 22.464C327.478 24 329.494 26.336 330.838 29.472C332.246 32.608 332.95 36.416 332.95 40.896V72H317.494V42.144C317.494 40.096 317.206 38.4 316.63 37.056C316.054 35.712 315.19 34.72 314.038 34.08C312.95 33.376 311.574 33.024 309.91 33.024C308.566 33.024 307.318 33.248 306.166 33.696C305.078 34.144 304.118 34.752 303.286 35.52C302.518 36.288 301.91 37.184 301.462 38.208C301.014 39.232 300.79 40.384 300.79 41.664V72H285.334V42.048C285.334 40.128 285.046 38.496 284.47 37.152C283.894 35.808 283.03 34.784 281.878 34.08C280.726 33.376 279.382 33.024 277.846 33.024C276.502 33.024 275.254 33.248 274.102 33.696C273.014 34.144 272.054 34.752 271.222 35.52C270.454 36.288 269.846 37.184 269.398 38.208C268.95 39.232 268.726 40.352 268.726 41.568V72H253.27ZM342.073 94.08L353.689 66.72L353.881 74.592L329.305 21.024H346.681L357.433 46.656C358.009 47.936 358.553 49.312 359.065 50.784C359.577 52.256 359.961 53.664 360.217 55.008L358.105 56.256C358.489 55.296 358.905 54.112 359.353 52.704C359.865 51.232 360.409 49.664 360.985 48L370.393 21.024H387.865L366.169 72L357.337 94.08H342.073Z" fill="#040107"/>
</svg>
